<svg width="20" height="20" viewBox="0 0 20 20" fill="none" xmlns="http://www.w3.org/2000/svg">
<path fill-rule="evenodd" clip-rule="evenodd" d="M13.5774 13.5775C13.9028 13.2521 14.4304 13.2521 14.7559 13.5775L18.0892 16.9108C18.4147 17.2363 18.4147 17.7639 18.0892 18.0893C17.7638 18.4148 17.2361 18.4148 16.9107 18.0893L13.5774 14.756C13.2519 14.4306 13.2519 13.9029 13.5774 13.5775Z" fill="black"/>
<path fill-rule="evenodd" clip-rule="evenodd" d="M1.66663 9.16675C1.66663 5.02461 5.02449 1.66675 9.16663 1.66675C13.3088 1.66675 16.6666 5.02461 16.6666 9.16675C16.6666 11.234 15.8292 13.1072 14.477 14.463C13.1201 15.8235 11.2411 16.6667 9.16663 16.6667C5.02449 16.6667 1.66663 13.3089 1.66663 9.16675ZM9.16663 3.33341C5.94496 3.33341 3.33329 5.94509 3.33329 9.16675C3.33329 12.3884 5.94496 15.0001 9.16663 15.0001C10.7805 15.0001 12.24 14.3458 13.2969 13.286C14.3502 12.23 15 10.775 15 9.16675C15 5.94508 12.3883 3.33341 9.16663 3.33341Z" fill="black"/>
</svg>
