<svg width="20" height="20" viewBox="0 0 20 20" fill="none" xmlns="http://www.w3.org/2000/svg">
<path fill-rule="evenodd" clip-rule="evenodd" d="M7.38099 5.00001C10.2007 5.00001 12.5 7.46594 12.5 9.99801C12.5 10.4582 12.1269 10.8313 11.6667 10.8313C11.2065 10.8313 10.8334 10.4582 10.8334 9.99801C10.8334 8.37724 9.27106 6.66668 7.38099 6.66668L5.95242 6.66668C4.02306 6.66668 2.50004 8.18053 2.50004 9.99801C2.50004 11.565 3.62899 12.9038 5.17948 13.2457C5.42697 13.3003 5.68563 13.3293 5.95242 13.3293C6.41266 13.3293 6.78576 13.7024 6.78576 14.1627C6.78576 14.6229 6.41266 14.996 5.95242 14.996C5.56455 14.996 5.1856 14.9538 4.82049 14.8733C2.55391 14.3734 0.833374 12.395 0.833374 9.99801C0.833374 7.21536 3.14792 5.00002 5.95242 5.00002L7.38099 5.00001Z" fill="black"/>
<path fill-rule="evenodd" clip-rule="evenodd" d="M13.2143 5.83333C13.2143 5.3731 13.5874 5 14.0476 5C14.4356 5 14.8145 5.04228 15.1795 5.12275C17.4461 5.62254 19.1667 7.601 19.1667 9.99801C19.1667 12.7807 16.8522 14.996 14.0476 14.996H12.6191C9.7994 14.996 7.50004 12.5301 7.50004 9.99801C7.50004 9.53777 7.87314 9.16467 8.33337 9.16467C8.79361 9.16467 9.16671 9.53777 9.16671 9.99801C9.16671 11.6188 10.729 13.3293 12.6191 13.3293H14.0476C15.9771 13.3293 17.5 11.8155 17.5 9.99801C17.5 8.43102 16.3711 7.09221 14.8206 6.75032M13.2143 5.83333C13.2143 6.29357 13.5874 6.66667 14.0476 6.66667L13.2143 5.83333ZM14.0476 6.66667C14.3143 6.66667 14.5729 6.6957 14.8206 6.75032L14.0476 6.66667Z" fill="black"/>
<path d="M14.8206 6.75032L13.2143 5.83333L14.0476 6.66667C14.3143 6.66667 14.5729 6.6957 14.8206 6.75032Z" fill="black"/>
</svg>
