<svg width="20" height="20" viewBox="0 0 20 20" fill="none" xmlns="http://www.w3.org/2000/svg">
<g clip-path="url(#clip0_60_211)">
<path d="M10.8334 6.66659C10.8334 6.20635 10.4603 5.83325 10 5.83325C9.5398 5.83325 9.16671 6.20635 9.16671 6.66659V9.16658H6.66671C6.20647 9.16658 5.83337 9.53968 5.83337 9.99992C5.83337 10.4602 6.20647 10.8333 6.66671 10.8333H9.16671V13.3333C9.16671 13.7935 9.5398 14.1666 10 14.1666C10.4603 14.1666 10.8334 13.7935 10.8334 13.3333V10.8333H13.3334C13.7936 10.8333 14.1667 10.4602 14.1667 9.99992C14.1667 9.53968 13.7936 9.16658 13.3334 9.16658H10.8334V6.66659Z" fill="black"/>
<path fill-rule="evenodd" clip-rule="evenodd" d="M10 0.833252C4.93743 0.833252 0.833374 4.93731 0.833374 9.99992C0.833374 15.0625 4.93743 19.1666 10 19.1666C15.0626 19.1666 19.1667 15.0625 19.1667 9.99992C19.1667 4.9373 15.0626 0.833252 10 0.833252ZM2.50004 9.99992C2.50004 5.85778 5.8579 2.49992 10 2.49992C14.1421 2.49992 17.5 5.85778 17.5 9.99992C17.5 14.142 14.1421 17.4999 10 17.4999C5.85791 17.4999 2.50004 14.142 2.50004 9.99992Z" fill="black"/>
</g>
<defs>
<clipPath id="clip0_60_211">
<rect width="20" height="20" fill="white"/>
</clipPath>
</defs>
</svg>
