<svg xmlns="http://www.w3.org/2000/svg" width="20" height="20" viewBox="0 0 20 20" fill="none">
<path fill-rule="evenodd" clip-rule="evenodd" d="M5 3.33341C4.53976 3.33341 4.16667 3.70651 4.16667 4.16675V15.8334C4.16667 16.2937 3.79357 16.6667 3.33333 16.6667C2.8731 16.6667 2.5 16.2937 2.5 15.8334V4.16675C2.5 2.78604 3.61929 1.66675 5 1.66675H16.1667C16.9031 1.66675 17.5 2.26373 17.5 3.00008V13.9287C17.5 14.3889 17.1269 14.762 16.6667 14.762C16.2064 14.762 15.8333 14.3889 15.8333 13.9287V3.33341H5Z" fill="#ffffff"/>
<path fill-rule="evenodd" clip-rule="evenodd" d="M4.16667 14.1667C4.16667 13.7065 4.53976 13.3334 5 13.3334H16.6667C17.1269 13.3334 17.5 13.7065 17.5 14.1667C17.5 14.627 17.1269 15.0001 16.6667 15.0001H5C4.53976 15.0001 4.16667 14.627 4.16667 14.1667Z" fill="#ffffff"/>
<path fill-rule="evenodd" clip-rule="evenodd" d="M4.16667 17.5001C4.16667 17.0398 4.53976 16.6667 5 16.6667H16.6667C17.1269 16.6667 17.5 17.0398 17.5 17.5001C17.5 17.9603 17.1269 18.3334 16.6667 18.3334H5C4.53976 18.3334 4.16667 17.9603 4.16667 17.5001Z" fill="#ffffff"/>
<path fill-rule="evenodd" clip-rule="evenodd" d="M5 15.0001C4.53975 15.0001 4.16667 15.3732 4.16667 15.8334C4.16667 16.2937 4.53975 16.6667 5 16.6667C5.46024 16.6667 5.83333 17.0398 5.83333 17.5001C5.83333 17.9603 5.46024 18.3334 5 18.3334C3.6193 18.3334 2.5 17.2142 2.5 15.8334C2.5 14.4527 3.6193 13.3334 5 13.3334C5.46024 13.3334 5.83333 13.7065 5.83333 14.1667C5.83333 14.627 5.46024 15.0001 5 15.0001Z" fill="#ffffff"/>
<path fill-rule="evenodd" clip-rule="evenodd" d="M6.66667 5.83341C6.66667 5.37318 7.03976 5.00008 7.5 5.00008H12.5C12.9602 5.00008 13.3333 5.37318 13.3333 5.83341C13.3333 6.29365 12.9602 6.66675 12.5 6.66675H7.5C7.03976 6.66675 6.66667 6.29365 6.66667 5.83341Z" fill="#ffffff"/>
</svg>