<svg width="20" height="20" viewBox="0 0 20 20" fill="none" xmlns="http://www.w3.org/2000/svg">
<path fill-rule="evenodd" clip-rule="evenodd" d="M8.33333 8.33333V15.8333H15.8333V8.33333H8.33333ZM6.66667 8C6.66667 7.26362 7.26362 6.66667 8 6.66667H16.1667C16.9031 6.66667 17.5 7.26365 17.5 8V16.1667C17.5 16.9031 16.9031 17.5 16.1667 17.5H8C7.26365 17.5 6.66667 16.9031 6.66667 16.1667V8Z" fill="black"/>
<path fill-rule="evenodd" clip-rule="evenodd" d="M2.5 3.83333C2.5 3.09695 3.09695 2.5 3.83333 2.5H12C12.7364 2.5 13.3333 3.09698 13.3333 3.83333V7.5C13.3333 7.96024 12.9602 8.33333 12.5 8.33333C12.0398 8.33333 11.6667 7.96024 11.6667 7.5V4.16667H4.16667V11.6667H7.5C7.96024 11.6667 8.33333 12.0398 8.33333 12.5C8.33333 12.9602 7.96024 13.3333 7.5 13.3333H3.83333C3.09698 13.3333 2.5 12.7364 2.5 12V3.83333Z" fill="black"/>
</svg>
