<svg width="20" height="20" viewBox="0 0 20 20" fill="none" xmlns="http://www.w3.org/2000/svg">
<path fill-rule="evenodd" clip-rule="evenodd" d="M4.16663 3.33341C3.70639 3.33341 3.33329 3.70651 3.33329 4.16675V15.8334C3.33329 16.2937 3.70639 16.6667 4.16663 16.6667H15.8333C16.2935 16.6667 16.6666 16.2937 16.6666 15.8334V4.16675C16.6666 3.70651 16.2935 3.33341 15.8333 3.33341H4.16663ZM1.66663 4.16675C1.66663 2.78604 2.78591 1.66675 4.16663 1.66675H15.8333C17.214 1.66675 18.3333 2.78604 18.3333 4.16675V15.8334C18.3333 17.2141 17.214 18.3334 15.8333 18.3334H4.16663C2.78591 18.3334 1.66663 17.2141 1.66663 15.8334V4.16675Z" fill="black"/>
<path fill-rule="evenodd" clip-rule="evenodd" d="M4.99996 6.66675C4.99996 6.20651 5.37306 5.83341 5.83329 5.83341H14.1666C14.6269 5.83341 15 6.20651 15 6.66675C15 7.12699 14.6269 7.50008 14.1666 7.50008H5.83329C5.37306 7.50008 4.99996 7.12699 4.99996 6.66675Z" fill="black"/>
<path fill-rule="evenodd" clip-rule="evenodd" d="M4.99996 10.0001C4.99996 9.53984 5.37306 9.16675 5.83329 9.16675H14.1666C14.6269 9.16675 15 9.53984 15 10.0001C15 10.4603 14.6269 10.8334 14.1666 10.8334H5.83329C5.37306 10.8334 4.99996 10.4603 4.99996 10.0001Z" fill="black"/>
<path fill-rule="evenodd" clip-rule="evenodd" d="M4.99996 13.3334C4.99996 12.8732 5.37306 12.5001 5.83329 12.5001H14.1666C14.6269 12.5001 15 12.8732 15 13.3334C15 13.7937 14.6269 14.1667 14.1666 14.1667H5.83329C5.37306 14.1667 4.99996 13.7937 4.99996 13.3334Z" fill="black"/>
</svg>
