<svg width="20" height="20" viewBox="0 0 20 20" fill="none" xmlns="http://www.w3.org/2000/svg">
<path fill-rule="evenodd" clip-rule="evenodd" d="M6.6667 17.5C6.6667 17.0398 7.0398 16.6667 7.50003 16.6667H17.5C17.9603 16.6667 18.3334 17.0398 18.3334 17.5C18.3334 17.9602 17.9603 18.3333 17.5 18.3333H7.50003C7.0398 18.3333 6.6667 17.9602 6.6667 17.5Z" fill="black"/>
<path fill-rule="evenodd" clip-rule="evenodd" d="M6.46441 5.63113C6.78985 5.3057 7.31749 5.3057 7.64292 5.63113L13.8301 11.8183C14.1556 12.1438 14.1556 12.6714 13.8301 12.9968C13.5047 13.3223 12.9771 13.3223 12.6516 12.9968L6.46441 6.80965C6.13898 6.48421 6.13898 5.95657 6.46441 5.63113Z" fill="black"/>
<path fill-rule="evenodd" clip-rule="evenodd" d="M11.8393 3.43441C11.5139 3.109 10.9862 3.109 10.6608 3.43441L3.00048 11.0947C2.67501 11.4202 2.67505 11.9479 3.00044 12.2732L7.16712 16.4399C7.31226 16.5851 7.50917 16.6667 7.7145 16.6667C7.91985 16.6667 8.11671 16.5851 8.26178 16.44L15.9641 8.73777C16.2895 8.41228 16.2895 7.88464 15.9641 7.55922L11.8393 3.43441ZM13.0178 2.25591C12.0415 1.27961 10.4585 1.27961 9.48228 2.25591L1.82195 9.91623C0.84568 10.8926 0.845607 12.4755 1.82196 13.4518L5.98856 17.6184C6.44633 18.0762 7.06719 18.3333 7.7145 18.3333C8.36179 18.3333 8.98269 18.0762 9.44046 17.6183L17.1426 9.91625C18.1188 8.93991 18.1189 7.35704 17.1426 6.38072L13.0178 2.25591Z" fill="black"/>
</svg>
